<?xml version="1.0" encoding="utf-8"?>
<svg xmlns="http://www.w3.org/2000/svg" viewBox="1 1 394.197 206.067" width="394.197px" height="206.067px"><g id="object-1"><g id="object-0"><g transform="matrix(1, 0, 0, 1, -43.548, -139.572006)"><path d="M 81.673 231.985 C 86.62 232.104 91.387 233.356 93.175 234.786 C 94.128 235.441 94.962 236.633 95.618 238.421 C 96.988 241.758 96.929 244.738 96.929 251.472 L 80.72 252.485 C 80.72 248.671 80.243 246.347 79.409 245.572 C 78.575 244.797 75.953 244.44 71.543 244.44 C 66.895 244.44 64.094 244.738 63.141 245.274 C 62.187 245.751 61.77 247.419 61.77 250.101 C 62.306 255.405 62.127 255.583 78.455 259.159 C 81.793 259.814 84.355 260.351 86.024 260.768 C 89.48 261.542 93.651 263.092 95.081 264.522 C 95.737 265.178 96.392 266.131 97.048 267.442 C 98.419 270.064 98.419 272.686 98.419 277.632 C 98.419 282.936 98.419 285.856 97.644 289.193 C 96.988 292.53 96.452 293.841 94.307 295.629 C 92.161 297.416 90.374 297.893 86.262 298.31 C 82.15 298.966 78.336 298.966 71.543 298.966 C 64.749 298.966 60.936 298.966 56.705 298.31 C 52.593 297.834 50.746 297.297 48.6 295.688 C 46.634 294.079 45.978 292.59 45.263 289.55 C 44.548 286.273 44.548 283.532 44.548 278.347 L 60.757 277.334 L 60.757 281.088 C 60.876 282.578 61.532 284.604 62.127 285.081 C 62.485 285.379 63.141 285.558 64.094 285.856 C 66.06 286.332 67.431 286.332 71.483 286.332 C 81.495 286.332 82.031 285.379 82.031 279.777 C 81.733 274.116 81.733 273.878 69.457 271.017 C 65.465 270.243 62.187 269.647 59.684 269.051 C 54.857 267.859 50.626 265.773 48.839 264.284 C 48.004 263.509 47.23 262.317 46.574 260.768 C 45.442 257.431 45.442 255.166 45.442 249.267 C 45.442 246.466 45.561 244.321 45.621 242.831 C 45.919 239.732 47.289 236.216 49.256 234.965 C 50.269 234.309 51.759 233.654 53.844 233.117 C 58.016 231.985 62.902 231.806 71.483 231.806 C 75.893 231.747 79.23 231.866 81.673 231.985 Z" style="fill: rgb(255, 255, 255);"/><path d="M 122.613 259.397 L 122.613 283.293 C 122.613 286.213 123.566 287.048 126.248 287.048 L 134.352 287.048 L 134.352 296.284 C 131.075 297.774 126.724 298.549 121.182 298.549 C 110.456 298.549 106.523 295.092 106.523 286.63 L 106.523 259.099 L 99.968 258.563 L 99.968 247.539 L 106.583 247.539 L 106.583 235.978 L 122.613 235.978 L 122.613 247.539 L 134.352 247.539 L 134.352 258.563 L 122.613 259.397 Z" style="fill: rgb(255, 255, 255);"/><path d="M 179.522 251.472 C 183.277 255.583 184.111 261.245 184.111 272.746 C 184.111 284.247 183.277 289.908 179.522 294.02 C 175.887 298.132 170.643 298.966 160.334 298.966 C 149.906 298.966 144.661 298.132 140.907 294.02 C 137.272 289.908 136.438 284.247 136.438 272.746 C 136.438 261.245 137.272 255.583 140.907 251.472 C 144.661 247.36 149.846 246.525 160.334 246.525 C 170.703 246.525 175.887 247.36 179.522 251.472 Z M 152.945 261.185 C 151.991 262.675 151.574 266.489 151.574 272.746 C 151.574 279.003 152.051 282.936 152.945 284.485 C 153.958 285.975 156.401 286.75 160.334 286.75 C 163.671 286.75 165.28 286.392 166.651 285.558 C 168.677 283.532 168.796 280.612 168.915 272.805 C 168.915 266.548 168.438 262.615 167.545 261.125 C 166.591 259.636 164.207 258.861 160.334 258.861 C 156.401 258.801 153.958 259.576 152.945 261.185 Z" style="fill: rgb(255, 255, 255);"/><path d="M 225.467 248.194 C 231.546 250.339 233.274 254.451 233.274 264.522 L 219.21 265.178 C 219.21 259.874 217.721 258.384 211.404 258.384 C 208.901 258.384 207.232 258.742 206.16 259.397 C 205.147 260.053 204.491 261.245 204.134 263.151 C 203.836 264.939 203.657 268.217 203.657 272.746 C 203.657 279.718 203.776 282.519 204.849 284.783 C 206.041 287.048 207.65 287.226 211.404 287.226 C 214.741 287.226 216.886 286.869 217.84 286.035 C 218.793 285.2 219.21 283.532 219.21 280.91 L 233.274 280.254 C 233.274 295.39 230.473 299.025 211.344 299.025 C 201.333 299.025 196.327 298.191 192.692 294.079 C 189.236 289.968 188.402 284.306 188.402 272.805 C 188.402 261.304 189.236 255.643 192.692 251.65 C 196.327 247.539 201.392 246.585 211.344 246.585 C 217.721 246.525 222.369 247.062 225.467 248.194 Z" style="fill: rgb(255, 255, 255);"/><path d="M 289.349 286.988 L 289.349 298.012 L 268.731 298.012 L 268.075 291.398 C 263.248 296.463 257.885 298.966 252.045 298.966 C 241.319 298.966 236.194 293.007 236.194 283.651 C 236.194 278.526 237.028 275.427 240.365 272.388 C 243.702 269.111 250.794 267.74 261.937 267.74 L 267.718 267.74 L 267.718 266.25 C 267.718 262.794 267.241 260.589 266.347 259.338 C 265.394 258.146 263.248 257.55 260.03 257.55 C 253.773 257.55 252.581 258.563 252.581 262.973 L 238.518 263.628 C 238.518 256.239 239.173 252.783 242.451 250.101 C 245.728 247.181 250.853 246.585 260.805 246.585 C 270.399 246.585 276.656 247.777 279.576 250.22 C 282.496 252.544 283.867 257.848 283.867 266.071 L 283.867 286.69 L 289.349 286.988 Z M 267.718 283.174 L 267.718 275.964 L 263.963 275.964 C 258.839 275.964 255.501 276.5 253.773 277.632 C 252.164 278.645 251.33 280.314 251.33 282.697 C 251.33 285.856 253.177 287.465 256.991 287.465 C 260.984 287.465 264.5 286.094 267.718 283.174 Z" style="fill: rgb(255, 255, 255);"/><path d="M 345.008 286.988 L 345.008 298.012 L 323.257 298.012 L 323.257 291.398 C 320.933 294.496 318.787 296.463 316.702 297.476 C 314.735 298.489 311.875 298.966 308.24 298.966 C 294.891 298.608 291.435 295.212 290.958 272.746 C 290.958 265.356 291.495 259.874 292.627 256.12 C 294.891 248.671 298.765 246.585 307.644 246.585 C 315.391 246.585 319.145 247.777 323.197 252.246 L 323.197 239.374 L 317.596 239.017 L 317.596 227.993 L 339.227 227.993 L 339.227 286.571 L 345.008 286.988 Z M 323.316 284.843 L 323.316 260.768 C 321.29 259.814 318.251 259.397 314.259 259.397 C 310.623 259.397 308.359 260.172 307.525 261.542 C 306.69 262.913 306.214 266.667 306.214 272.746 C 306.214 278.049 306.512 280.493 306.988 282.697 C 308.121 285.975 309.789 285.856 314.378 286.154 C 318.192 286.154 321.171 285.677 323.316 284.843 Z" style="fill: rgb(255, 255, 255);"/><path d="M 388.629 251.472 C 392.383 255.583 393.217 261.245 393.217 272.746 C 393.217 284.247 392.383 289.908 388.629 294.02 C 384.993 298.132 379.749 298.966 369.44 298.966 C 359.012 298.966 353.768 298.132 350.013 294.02 C 346.378 289.908 345.544 284.247 345.544 272.746 C 345.544 261.245 346.378 255.583 350.013 251.472 C 353.768 247.36 358.952 246.525 369.44 246.525 C 379.749 246.525 384.993 247.36 388.629 251.472 Z M 361.991 261.185 C 361.038 262.675 360.621 266.489 360.621 272.746 C 360.621 279.003 361.097 282.936 361.991 284.485 C 363.004 285.975 365.447 286.75 369.381 286.75 C 372.718 286.75 374.327 286.392 375.697 285.558 C 377.723 283.532 377.843 280.612 377.962 272.805 C 377.962 266.548 377.485 262.615 376.591 261.125 C 375.638 259.636 373.254 258.861 369.381 258.861 C 365.447 258.801 363.064 259.576 361.991 261.185 Z" style="fill: rgb(255, 255, 255);"/></g><g transform="matrix(1, 0, 0, 1, -43.548, -139.572006)"><path d="M 342.028 213.631 C 345.008 220.126 351.801 224 358.892 223.225 L 386.424 220.126 L 369.559 220.126 C 360.919 220.126 353.291 214.584 350.609 206.361 L 329.216 140.572 L 323.436 158.39 C 321.707 163.753 322.005 169.533 324.329 174.599 L 342.028 213.631 Z" style="fill: rgb(255, 255, 255);"/><path d="M 292.508 230.674 C 299.599 229.899 305.379 224.596 306.81 217.564 L 311.339 195.396 L 307.763 206.301 C 305.081 214.525 297.454 220.067 288.813 220.067 L 219.687 220.067 L 234.942 231.151 C 239.471 234.428 245.073 235.918 250.675 235.322 L 292.508 230.674 Z" style="fill: rgb(255, 255, 255);"/><path d="M 391.787 238.779 L 405.791 226.026 C 409.962 222.272 415.325 220.126 420.927 220.126 L 438.745 220.126 L 419.378 234.19 C 415.266 237.17 410.32 238.779 405.255 238.779 L 391.787 238.779 Z" style="fill: rgb(255, 255, 255);"/><path d="M 399.534 317.32 L 400.07 317.618 C 404.957 320.359 408.592 324.888 410.32 330.192 L 415.683 346.639 L 367.772 311.838 L 379.034 311.838 C 386.245 311.957 393.277 313.804 399.534 317.32 Z" style="fill: rgb(255, 255, 255);"/></g></g></g></svg>